<svg width="453" height="302" viewBox="0 0 453 302" fill="none" xmlns="http://www.w3.org/2000/svg">
<path d="M4.39453 140.918V0H97.7539V24.3164H33.8867V58.1055H94.1406V81.1523H33.8867V116.602H97.7539V140.918H4.39453ZM132.238 140.918L96.0078 36.2305H126.477L148.352 115.723H148.938L170.52 36.2305H200.305L164.367 140.918H132.238ZM242.211 143.066C231.534 143.066 222.354 140.885 214.672 136.523C206.99 132.096 201.065 125.814 196.898 117.676C192.797 109.538 190.746 99.9023 190.746 88.7695V88.6719C190.746 77.5391 192.797 67.9036 196.898 59.7656C201.065 51.5625 206.892 45.2474 214.379 40.8203C221.931 36.3281 230.818 34.082 241.039 34.082C251.26 34.082 260.082 36.263 267.504 40.625C274.991 44.9219 280.753 51.0091 284.789 58.8867C288.891 66.7643 290.941 75.9766 290.941 86.5234V95.3125H204.711V77.3438H277.465L263.891 94.1406V83.2031C263.891 77.0833 262.947 71.9727 261.059 67.8711C259.171 63.7044 256.534 60.5794 253.148 58.4961C249.828 56.4128 245.954 55.3711 241.527 55.3711C237.1 55.3711 233.161 56.4453 229.711 58.5938C226.326 60.7422 223.656 63.8997 221.703 68.0664C219.815 72.168 218.871 77.2135 218.871 83.2031V94.2383C218.871 100.033 219.815 104.98 221.703 109.082C223.656 113.184 226.423 116.341 230.004 118.555C233.585 120.703 237.849 121.777 242.797 121.777C246.703 121.777 250.089 121.159 252.953 119.922C255.818 118.685 258.161 117.122 259.984 115.234C261.807 113.346 263.044 111.426 263.695 109.473L263.891 108.887H290.062L289.77 109.961C288.988 113.802 287.458 117.676 285.18 121.582C282.901 125.488 279.809 129.069 275.902 132.324C272.061 135.579 267.341 138.184 261.742 140.137C256.208 142.09 249.698 143.066 242.211 143.066ZM293.688 140.918V36.2305H322.203V53.418H322.789C325.523 47.4284 329.56 42.7083 334.898 39.2578C340.237 35.8073 346.845 34.082 354.723 34.082C366.246 34.082 375.133 37.5651 381.383 44.5312C387.698 51.4323 390.855 61.0352 390.855 73.3398V140.918H362.34V79.1992C362.34 72.3633 360.712 67.0898 357.457 63.3789C354.267 59.6029 349.482 57.7148 343.102 57.7148C338.87 57.7148 335.191 58.6914 332.066 60.6445C328.941 62.5326 326.5 65.2018 324.742 68.6523C323.049 72.1029 322.203 76.1393 322.203 80.7617V140.918H293.688ZM438.523 143.066C426.935 143.066 418.341 140.625 412.742 135.742C407.143 130.859 404.344 122.819 404.344 111.621V57.7148H389.793V36.2305H404.344V10.6445H433.152V36.2305H452.293V57.7148H433.152V108.496C433.152 113.379 434.227 116.797 436.375 118.75C438.589 120.638 441.844 121.582 446.141 121.582C447.443 121.582 448.582 121.549 449.559 121.484C450.535 121.354 451.447 121.224 452.293 121.094V141.992C450.73 142.253 448.777 142.48 446.434 142.676C444.155 142.936 441.518 143.066 438.523 143.066Z" fill="#111F35"/>
<path d="M67.8711 301.359C57.3242 301.359 47.8516 299.699 39.4531 296.379C31.1198 293.059 24.0234 288.241 18.1641 281.926C12.3047 275.546 7.8125 267.831 4.6875 258.781C1.5625 249.732 0 239.478 0 228.02V227.922C0 212.818 2.73438 199.895 8.20312 189.152C13.6719 178.345 21.4193 170.044 31.4453 164.25C41.5365 158.456 53.4505 155.559 67.1875 155.559C78.5156 155.559 88.5091 157.577 97.168 161.613C105.827 165.585 112.858 171.053 118.262 178.02C123.73 184.986 127.246 192.896 128.809 201.75L129.102 203.117H99.5117L99.1211 202.141C96.7773 195.305 92.8711 189.999 87.4023 186.223C81.9336 182.447 75.2279 180.559 67.2852 180.559C59.5378 180.559 52.8646 182.414 47.2656 186.125C41.7318 189.771 37.4674 195.109 34.4727 202.141C31.543 209.172 30.0781 217.668 30.0781 227.629V227.727C30.0781 235.344 30.957 242.18 32.7148 248.234C34.4727 254.224 37.0117 259.302 40.332 263.469C43.7174 267.635 47.7539 270.826 52.4414 273.039C57.194 275.253 62.5 276.359 68.3594 276.359C74.7396 276.359 80.3711 275.188 85.2539 272.844C90.2018 270.435 94.0755 267.082 96.875 262.785C99.7396 258.423 101.302 253.345 101.562 247.551L101.66 245.5H69.4336V223.527H130.371V239.738C130.371 249.309 128.939 257.902 126.074 265.52C123.275 273.137 119.173 279.615 113.77 284.953C108.431 290.292 101.888 294.361 94.1406 297.16C86.3932 299.96 77.6367 301.359 67.8711 301.359ZM165.637 300.578C158.671 300.578 152.551 299.243 147.277 296.574C142.004 293.84 137.87 290.096 134.875 285.344C131.945 280.526 130.48 275.057 130.48 268.938V268.742C130.48 262.362 132.076 256.926 135.266 252.434C138.456 247.876 143.078 244.296 149.133 241.691C155.188 239.087 162.544 237.492 171.203 236.906L212.023 234.367V252.141L175.5 254.484C170.031 254.81 165.865 256.112 163 258.391C160.135 260.604 158.703 263.566 158.703 267.277V267.473C158.703 271.314 160.168 274.341 163.098 276.555C166.027 278.703 169.966 279.777 174.914 279.777C179.146 279.777 182.922 278.964 186.242 277.336C189.628 275.643 192.264 273.365 194.152 270.5C196.105 267.57 197.082 264.283 197.082 260.637V228.898C197.082 224.276 195.617 220.63 192.688 217.961C189.758 215.227 185.493 213.859 179.895 213.859C174.556 213.859 170.324 214.966 167.199 217.18C164.074 219.393 162.154 222.193 161.438 225.578L161.242 226.457H135.168L135.266 225.285C135.786 218.84 137.902 213.111 141.613 208.098C145.389 203.085 150.598 199.178 157.238 196.379C163.944 193.514 171.887 192.082 181.066 192.082C190.116 192.082 197.961 193.547 204.602 196.477C211.242 199.341 216.385 203.41 220.031 208.684C223.742 213.957 225.598 220.109 225.598 227.141V298.918H197.082V283.293H196.496C194.543 286.874 192.004 289.966 188.879 292.57C185.819 295.109 182.336 297.095 178.43 298.527C174.523 299.895 170.259 300.578 165.637 300.578ZM273.656 301.066C262.068 301.066 253.474 298.625 247.875 293.742C242.276 288.859 239.477 280.819 239.477 269.621V215.715H224.926V194.23H239.477V168.645H268.285V194.23H287.426V215.715H268.285V266.496C268.285 271.379 269.359 274.797 271.508 276.75C273.721 278.638 276.977 279.582 281.273 279.582C282.576 279.582 283.715 279.549 284.691 279.484C285.668 279.354 286.579 279.224 287.426 279.094V299.992C285.863 300.253 283.91 300.48 281.566 300.676C279.288 300.936 276.651 301.066 273.656 301.066ZM337.438 301.066C326.76 301.066 317.581 298.885 309.898 294.523C302.216 290.096 296.292 283.814 292.125 275.676C288.023 267.538 285.973 257.902 285.973 246.77V246.672C285.973 235.539 288.023 225.904 292.125 217.766C296.292 209.562 302.118 203.247 309.605 198.82C317.158 194.328 326.044 192.082 336.266 192.082C346.487 192.082 355.309 194.263 362.73 198.625C370.217 202.922 375.979 209.009 380.016 216.887C384.117 224.764 386.168 233.977 386.168 244.523V253.312H299.938V235.344H372.691L359.117 252.141V241.203C359.117 235.083 358.173 229.973 356.285 225.871C354.397 221.704 351.76 218.579 348.375 216.496C345.055 214.413 341.181 213.371 336.754 213.371C332.327 213.371 328.388 214.445 324.938 216.594C321.552 218.742 318.883 221.9 316.93 226.066C315.042 230.168 314.098 235.214 314.098 241.203V252.238C314.098 258.033 315.042 262.98 316.93 267.082C318.883 271.184 321.65 274.341 325.23 276.555C328.811 278.703 333.076 279.777 338.023 279.777C341.93 279.777 345.315 279.159 348.18 277.922C351.044 276.685 353.388 275.122 355.211 273.234C357.034 271.346 358.271 269.426 358.922 267.473L359.117 266.887H385.289L384.996 267.961C384.215 271.802 382.685 275.676 380.406 279.582C378.128 283.488 375.035 287.069 371.129 290.324C367.288 293.579 362.568 296.184 356.969 298.137C351.435 300.09 344.924 301.066 337.438 301.066Z" fill="white"/>
</svg>
